<svg xmlns="http://www.w3.org/2000/svg" width="36" height="36" viewBox="0 0 36 36"><g transform="translate(1 1)"><path d="M312.11,5625.724a1.607,1.607,0,0,1,.547-1.242,2.1,2.1,0,0,1,1.48-.484,2.175,2.175,0,0,1,1.48.484,1.608,1.608,0,0,1,.547,1.242,1.586,1.586,0,0,1-.554,1.256,2.457,2.457,0,0,1-2.946,0,1.586,1.586,0,0,1-.554-1.256Zm3.844,15.811H312.32v-12.556h3.633Z" transform="translate(-297.137 -5616.024)" fill="#fff"/><circle cx="17" cy="17" r="17" fill="none" stroke="#fff" stroke-miterlimit="10" stroke-width="2"/></g></svg>