<svg xmlns="http://www.w3.org/2000/svg" width="16.86" height="16.86" viewBox="0 0 16.86 16.86"><circle cx="8.43" cy="8.43" r="8.43" fill="#3b4157"/><path d="M4.911,0C3.577,0,3.41.006,2.886.029A3.621,3.621,0,0,0,1.694.258a2.4,2.4,0,0,0-.87.566,2.4,2.4,0,0,0-.566.87A3.611,3.611,0,0,0,.029,2.886C0,3.41,0,3.577,0,4.911s.006,1.5.029,2.025A3.623,3.623,0,0,0,.258,8.128,2.408,2.408,0,0,0,.824,9a2.4,2.4,0,0,0,.87.566,3.626,3.626,0,0,0,1.192.228c.524.025.69.029,2.025.029s1.5-.006,2.025-.029a3.634,3.634,0,0,0,1.192-.228A2.51,2.51,0,0,0,9.564,8.128a3.623,3.623,0,0,0,.228-1.192c.025-.524.029-.69.029-2.025s-.006-1.5-.029-2.025a3.632,3.632,0,0,0-.228-1.192A2.41,2.41,0,0,0,9,.824a2.393,2.393,0,0,0-.87-.566A3.613,3.613,0,0,0,6.935.029C6.412,0,6.245,0,4.911,0Zm0,.884C6.222.884,6.378.891,6.9.913a2.706,2.706,0,0,1,.911.17,1.616,1.616,0,0,1,.932.932,2.711,2.711,0,0,1,.169.911c.023.518.029.674.029,1.985S8.931,6.378,8.907,6.9a2.764,2.764,0,0,1-.172.911,1.559,1.559,0,0,1-.368.566,1.532,1.532,0,0,1-.565.367,2.731,2.731,0,0,1-.915.169c-.521.023-.675.029-1.988.029s-1.468-.006-1.988-.03A2.785,2.785,0,0,1,2,8.734a1.521,1.521,0,0,1-.564-.368A1.491,1.491,0,0,1,1.062,7.8a2.787,2.787,0,0,1-.172-.915C.872,6.371.866,6.212.866,4.9S.872,3.437.891,2.915A2.784,2.784,0,0,1,1.062,2a1.456,1.456,0,0,1,.368-.565A1.453,1.453,0,0,1,2,1.069,2.718,2.718,0,0,1,2.9.9C3.426.878,3.579.872,4.892.872l.018.012Zm0,1.505A2.522,2.522,0,1,0,7.433,4.911,2.522,2.522,0,0,0,4.911,2.389Zm0,4.159A1.637,1.637,0,1,1,6.548,4.911,1.637,1.637,0,0,1,4.911,6.548ZM8.122,2.29A.589.589,0,1,1,7.532,1.7.59.59,0,0,1,8.122,2.29Z" transform="translate(3.432 3.432)" fill="#fff"/></svg>