<svg xmlns="http://www.w3.org/2000/svg" width="26.582" height="26.582" viewBox="0 0 26.582 26.582"><defs><style>.a{fill:#fff;}</style></defs><path class="a" d="M26.582,12.949A13.071,13.071,0,0,1,7.225,24.286L0,26.582l2.355-6.947A12.812,12.812,0,0,1,.483,12.949a13.05,13.05,0,0,1,26.1,0ZM13.533,2.062A10.941,10.941,0,0,0,2.561,12.949a10.772,10.772,0,0,0,2.09,6.383L3.281,23.374,7.5,22.034A10.982,10.982,0,0,0,24.5,12.949,10.942,10.942,0,0,0,13.533,2.062Zm6.59,13.869c-.081-.132-.294-.212-.613-.37s-1.893-.927-2.186-1.032-.507-.159-.72.159-.826,1.032-1.013,1.244-.373.239-.693.08a8.755,8.755,0,0,1-2.572-1.575,9.569,9.569,0,0,1-1.78-2.2c-.186-.318-.019-.489.14-.647.144-.142.32-.371.48-.556a2.127,2.127,0,0,0,.32-.53.578.578,0,0,0-.027-.556c-.08-.159-.72-1.72-.986-2.356s-.533-.529-.719-.529-.4-.027-.613-.027a1.18,1.18,0,0,0-.853.4,3.549,3.549,0,0,0-1.119,2.647,6.141,6.141,0,0,0,1.306,3.282,13.076,13.076,0,0,0,5.464,4.792c3.252,1.27,3.252.846,3.839.793a3.235,3.235,0,0,0,2.16-1.508A2.646,2.646,0,0,0,20.122,15.931Z" transform="translate(0 0)"/></svg>