<svg xmlns="http://www.w3.org/2000/svg" width="174.461" height="21.4" viewBox="0 0 174.461 21.4"><defs><style>.a,.b{fill:#3b4157;}.b{fill-rule:evenodd;}</style></defs><g transform="translate(-821 -90.58)"><path class="a" d="M269.108,79.393a8.945,8.945,0,0,1-.6,3.333,5.487,5.487,0,0,1-1.881,2.452,5.694,5.694,0,0,1-1.882.852,10.164,10.164,0,0,1-2.562.289h-3.123V72.988q1.06-.121,1.872-.16t1.512-.039a8.559,8.559,0,0,1,3.2.52,5.05,5.05,0,0,1,3.143,3.523,9.9,9.9,0,0,1,.321,2.562m-1.782.109a9.162,9.162,0,0,0-.221-2.075,3.987,3.987,0,0,0-.783-1.645,3.671,3.671,0,0,0-1.5-1.074,6.25,6.25,0,0,0-2.34-.381c-.267,0-.546.007-.833.02s-.572.04-.853.08v10.43h1.667a5.517,5.517,0,0,0,2.28-.421,3.941,3.941,0,0,0,1.505-1.143,4.514,4.514,0,0,0,.824-1.7,8.391,8.391,0,0,0,.251-2.1" transform="translate(622.56 21.751)"/><path class="a" d="M287.314,84.243a7.408,7.408,0,0,1-.24,1.892,4.574,4.574,0,0,1-.772,1.611,3.813,3.813,0,0,1-1.371,1.121,4.524,4.524,0,0,1-2.042.421,4.657,4.657,0,0,1-2.031-.4,3.686,3.686,0,0,1-1.352-1.081,4.47,4.47,0,0,1-.76-1.591,7.459,7.459,0,0,1-.241-1.913,6.386,6.386,0,0,1,.28-1.9,4.514,4.514,0,0,1,.841-1.571,4.111,4.111,0,0,1,1.391-1.071,4.454,4.454,0,0,1,1.952-.4,4.538,4.538,0,0,1,2,.4,3.754,3.754,0,0,1,1.342,1.071,4.4,4.4,0,0,1,.761,1.551,7.069,7.069,0,0,1,.24,1.862m-1.782,0a6.909,6.909,0,0,0-.11-1.231,3.413,3.413,0,0,0-.393-1.1,2.16,2.16,0,0,0-.783-.791,2.52,2.52,0,0,0-1.306-.3,2.489,2.489,0,0,0-1.276.3,2.3,2.3,0,0,0-.814.791,3.462,3.462,0,0,0-.432,1.1,5.846,5.846,0,0,0-.131,1.231,7.364,7.364,0,0,0,.11,1.262,3.378,3.378,0,0,0,.412,1.151,2.551,2.551,0,0,0,.8.841,2.3,2.3,0,0,0,1.287.33,2.44,2.44,0,0,0,1.326-.33,2.308,2.308,0,0,0,.8-.841,3.653,3.653,0,0,0,.393-1.151,7.438,7.438,0,0,0,.11-1.262" transform="translate(614.664 19.084)"/><path class="a" d="M300.191,87.9a3.127,3.127,0,0,0,1.762-.521,2.053,2.053,0,0,0,.5-.472.806.806,0,0,0,.181-.451v-6.9h.12a.879.879,0,0,0,.11-.01.861.861,0,0,1,.13-.011,1.546,1.546,0,0,1,.951.291,1.233,1.233,0,0,1,.39,1.05v8.188h-1.7v-.864a3.625,3.625,0,0,1-1.121.809,4.22,4.22,0,0,1-1.863.355,3.709,3.709,0,0,1-1.8-.359,2.391,2.391,0,0,1-.951-.921,3.073,3.073,0,0,1-.37-1.231c-.04-.447-.061-.879-.061-1.291V79.548h.121a.878.878,0,0,0,.11-.01.85.85,0,0,1,.129-.011,1.584,1.584,0,0,1,.951.282,1.206,1.206,0,0,1,.39,1.043v4.716a5.571,5.571,0,0,0,.11,1.244,1.145,1.145,0,0,0,.451.7,1.757,1.757,0,0,0,.65.3,3.661,3.661,0,0,0,.811.08" transform="translate(607.371 19.015)"/><path class="a" d="M313.992,85.953a2.973,2.973,0,0,1-.171-.831c-.02-.3-.03-.6-.03-.891V74.862h.12a.771.771,0,0,0,.111-.01.938.938,0,0,1,.13-.01,1.609,1.609,0,0,1,.941.279,1.154,1.154,0,0,1,.4,1.014v1.591h2.982v1.461h-2.982v5.165q0,1.641,1.3,1.642a1.622,1.622,0,0,0,.6-.11,2.608,2.608,0,0,0,.5-.26,3.26,3.26,0,0,0,.37-.291,1.445,1.445,0,0,0,.19-.2,5.482,5.482,0,0,1,.411.58,1.04,1.04,0,0,1,.169.541.619.619,0,0,1-.18.39,1.815,1.815,0,0,1-.5.39,3.271,3.271,0,0,1-.79.3,4.219,4.219,0,0,1-1.031.119,3.04,3.04,0,0,1-1.662-.4,2.181,2.181,0,0,1-.88-1.1" transform="translate(600.337 20.917)"/><path class="a" d="M332.44,84.243a7.4,7.4,0,0,1-.241,1.892,4.571,4.571,0,0,1-.771,1.611,3.824,3.824,0,0,1-1.372,1.121,4.527,4.527,0,0,1-2.041.421,4.665,4.665,0,0,1-2.033-.4,3.689,3.689,0,0,1-1.351-1.081,4.469,4.469,0,0,1-.76-1.591,7.458,7.458,0,0,1-.241-1.913,6.364,6.364,0,0,1,.28-1.9,4.5,4.5,0,0,1,.84-1.571,4.107,4.107,0,0,1,1.392-1.071,4.451,4.451,0,0,1,1.951-.4,4.544,4.544,0,0,1,2,.4,3.744,3.744,0,0,1,1.341,1.071,4.373,4.373,0,0,1,.761,1.551,7.065,7.065,0,0,1,.241,1.862m-1.782,0a6.893,6.893,0,0,0-.111-1.231,3.413,3.413,0,0,0-.392-1.1,2.167,2.167,0,0,0-.784-.791,2.521,2.521,0,0,0-1.306-.3,2.484,2.484,0,0,0-1.275.3,2.3,2.3,0,0,0-.814.791,3.429,3.429,0,0,0-.432,1.1,5.815,5.815,0,0,0-.131,1.231,7.418,7.418,0,0,0,.11,1.262,3.4,3.4,0,0,0,.412,1.151,2.548,2.548,0,0,0,.8.841,2.292,2.292,0,0,0,1.285.33,2.44,2.44,0,0,0,1.326-.33,2.32,2.32,0,0,0,.8-.841,3.653,3.653,0,0,0,.392-1.151,7.421,7.421,0,0,0,.111-1.262" transform="translate(596.341 19.084)"/><path class="a" d="M342.091,79.518a1.54,1.54,0,0,1,.831.231,1.026,1.026,0,0,1,.451.77,2.93,2.93,0,0,1,.841-.791,2.3,2.3,0,0,1,1.3-.371,2.921,2.921,0,0,1,.47.041,2.159,2.159,0,0,1,.47.129.956.956,0,0,1,.36.25.617.617,0,0,1,.14.421,1.733,1.733,0,0,1-.16.691,3.835,3.835,0,0,1-.32.611,2,2,0,0,0-.56-.37,1.917,1.917,0,0,0-.761-.13,1.943,1.943,0,0,0-1.2.41,1.531,1.531,0,0,0-.38.43.975.975,0,0,0-.14.5v6.646h-1.7V79.539h.14a.763.763,0,0,0,.121-.01.631.631,0,0,1,.1-.01" transform="translate(588.992 19.084)"/><path class="a" d="M363.572,83.712V72.961a.562.562,0,0,0,.14-.02,1.418,1.418,0,0,0,.151-.009,1.739,1.739,0,0,1,.19-.01,1.591,1.591,0,0,1,.38.049,1.04,1.04,0,0,1,.371.181.947.947,0,0,1,.28.381,1.646,1.646,0,0,1,.11.65V86.374h-1.622l-6.806-10.39v10.39h-1.622V73.022a2,2,0,0,1,.341-.07,3.321,3.321,0,0,1,.44-.03,1.347,1.347,0,0,1,.691.15,1.476,1.476,0,0,1,.469.51Z" transform="translate(583.546 21.697)"/><path class="a" d="M384.313,86.805a5.292,5.292,0,0,0,.041.751.784.784,0,0,0,.149.4.52.52,0,0,0,.3.17,2.419,2.419,0,0,0,.491.04v.8a2.685,2.685,0,0,1-.441.1,3.464,3.464,0,0,1-.54.04,2.279,2.279,0,0,1-1.094-.249,1.089,1.089,0,0,1-.546-.891,4.558,4.558,0,0,1-1.2.851,4.121,4.121,0,0,1-1.835.35,4.75,4.75,0,0,1-1.048-.121,2.54,2.54,0,0,1-.958-.44,2.476,2.476,0,0,1-.709-.862,3.009,3.009,0,0,1-.279-1.382,2.637,2.637,0,0,1,.529-1.7,3.766,3.766,0,0,1,1.307-1.041,5.828,5.828,0,0,1,1.666-.521,12.675,12.675,0,0,1,1.625-.16h.419a3.763,3.763,0,0,1,.419.02v-.3a1.968,1.968,0,0,0-.43-1.371,2.22,2.22,0,0,0-1.652-.47,4.418,4.418,0,0,0-1.521.23,5.482,5.482,0,0,0-1.2.631h-.2a2.984,2.984,0,0,1-.27-.561,1.49,1.49,0,0,1-.111-.481.633.633,0,0,1,.321-.491,3.316,3.316,0,0,1,.83-.409,6.505,6.505,0,0,1,1.132-.281,7.67,7.67,0,0,1,1.221-.1,5.634,5.634,0,0,1,1.7.22,2.632,2.632,0,0,1,1.109.661,2.431,2.431,0,0,1,.6,1.1,6.09,6.09,0,0,1,.172,1.521Zm-1.681-2.562h-.577a10.826,10.826,0,0,0-1.3.08,4.636,4.636,0,0,0-1.2.3,2.288,2.288,0,0,0-.877.611,1.519,1.519,0,0,0-.338,1.031,1.684,1.684,0,0,0,.358,1.06,1.614,1.614,0,0,0,1.336.461,3.207,3.207,0,0,0,.986-.151,3.787,3.787,0,0,0,.827-.37,2.165,2.165,0,0,0,.567-.481.8.8,0,0,0,.209-.5Z" transform="translate(574.816 19.084)"/><path class="a" d="M395.349,85.953a2.978,2.978,0,0,1-.171-.831c-.02-.3-.03-.6-.03-.891V74.862h.12a.771.771,0,0,0,.111-.01.938.938,0,0,1,.13-.01,1.609,1.609,0,0,1,.941.279,1.154,1.154,0,0,1,.4,1.014v1.591h2.982v1.461H396.85v5.165q0,1.641,1.3,1.642a1.621,1.621,0,0,0,.6-.11,2.6,2.6,0,0,0,.5-.26,3.261,3.261,0,0,0,.37-.291,1.471,1.471,0,0,0,.19-.2,5.614,5.614,0,0,1,.411.58,1.044,1.044,0,0,1,.169.541.618.618,0,0,1-.18.39,1.813,1.813,0,0,1-.5.39,3.271,3.271,0,0,1-.79.3,4.224,4.224,0,0,1-1.031.119,3.039,3.039,0,0,1-1.662-.4,2.181,2.181,0,0,1-.88-1.1" transform="translate(567.303 20.917)"/><path class="a" d="M411.31,87.9a3.123,3.123,0,0,0,1.762-.521,2.041,2.041,0,0,0,.5-.472.8.8,0,0,0,.181-.451v-6.9h.121a.877.877,0,0,0,.11-.01.854.854,0,0,1,.129-.011,1.546,1.546,0,0,1,.952.291,1.235,1.235,0,0,1,.39,1.05v8.188h-1.7v-.864a3.619,3.619,0,0,1-1.121.809,4.217,4.217,0,0,1-1.862.355,3.709,3.709,0,0,1-1.8-.359,2.382,2.382,0,0,1-.95-.921,3.05,3.05,0,0,1-.371-1.231c-.041-.447-.061-.879-.061-1.291V79.548h.121a.843.843,0,0,0,.109-.01.871.871,0,0,1,.131-.011,1.58,1.58,0,0,1,.95.282,1.205,1.205,0,0,1,.39,1.043v4.716a5.573,5.573,0,0,0,.111,1.244,1.139,1.139,0,0,0,.45.7,1.767,1.767,0,0,0,.652.3,3.645,3.645,0,0,0,.81.08" transform="translate(562.253 19.015)"/><path class="a" d="M426.684,79.518a1.54,1.54,0,0,1,.831.231,1.026,1.026,0,0,1,.451.77,2.921,2.921,0,0,1,.841-.791,2.3,2.3,0,0,1,1.3-.371,2.926,2.926,0,0,1,.47.041,2.172,2.172,0,0,1,.471.129.954.954,0,0,1,.36.25.616.616,0,0,1,.14.421,1.734,1.734,0,0,1-.16.691,3.891,3.891,0,0,1-.32.611,2,2,0,0,0-.56-.37,1.918,1.918,0,0,0-.761-.13,1.939,1.939,0,0,0-.65.11,1.919,1.919,0,0,0-.55.3,1.531,1.531,0,0,0-.38.43.975.975,0,0,0-.141.5v6.646h-1.7V79.539h.14a.761.761,0,0,0,.121-.01.631.631,0,0,1,.1-.01" transform="translate(554.644 19.084)"/><path class="a" d="M441.752,87.827a3.752,3.752,0,0,0,1.011-.121,3.127,3.127,0,0,0,.74-.3,3.576,3.576,0,0,0,.532-.37,3.86,3.86,0,0,0,.359-.35,4.063,4.063,0,0,1,.392.6,1.181,1.181,0,0,1,.169.5.67.67,0,0,1-.1.334,1.293,1.293,0,0,1-.341.355,4.06,4.06,0,0,1-1.181.579,6.279,6.279,0,0,1-3.513-.037,3.74,3.74,0,0,1-1.457-.871,4.154,4.154,0,0,1-.991-1.572,6.776,6.776,0,0,1-.364-2.372,5.822,5.822,0,0,1,.37-2.182,4.363,4.363,0,0,1,.972-1.511,3.782,3.782,0,0,1,1.37-.871,4.616,4.616,0,0,1,1.592-.28,4.116,4.116,0,0,1,1.751.34,3.294,3.294,0,0,1,1.192.911,3.778,3.778,0,0,1,.681,1.322,5.484,5.484,0,0,1,.22,1.551c0,.187,0,.378-.01.571a4.8,4.8,0,0,1-.051.551h-6.306a3.891,3.891,0,0,0,.771,2.338,2.643,2.643,0,0,0,2.192.885m1.7-4.5a4.3,4.3,0,0,0-.11-1,2.211,2.211,0,0,0-.368-.811,1.78,1.78,0,0,0-.688-.551,2.47,2.47,0,0,0-1.047-.2,2.284,2.284,0,0,0-1.7.681,2.857,2.857,0,0,0-.748,1.882Z" transform="translate(550.306 19.083)"/><g transform="translate(821 90.58)"><path class="a" d="M216.808,80.295l-1.727-1.727-1.655,1.656a2.253,2.253,0,0,0,0,3.174l1.726,1.726,1.656-1.656a2.251,2.251,0,0,0,0-3.173" transform="translate(-179.507 -71.145)"/><path class="b" d="M188.923,80.219l-1.654-1.654-1.728,1.729a2.249,2.249,0,0,0,0,3.173l1.655,1.655,1.727-1.729a2.254,2.254,0,0,0,0-3.174" transform="translate(-168.253 -71.143)"/><path class="a" d="M235,75.2l-8.419-8.42a2.254,2.254,0,0,0-3.176,0l-6.763,6.764,1.726,1.727a2.253,2.253,0,0,1,0,3.174L216.715,80.1l6.693,6.694a2.252,2.252,0,0,0,3.176,0L235,78.379a2.254,2.254,0,0,0,0-3.174m-5.385.973a3.013,3.013,0,0,1-.956,2.258c-.975.946-1.99,1.851-3,2.756a.94.94,0,0,1-.412.2l-.05.013-.054.008a1,1,0,0,1-.147.013h-.01a1.027,1.027,0,0,1-.143-.013.968.968,0,0,1-.518-.228c-1.006-.9-2.014-1.794-2.982-2.731a2.915,2.915,0,0,1-.967-2.255c0-.013,0-.025,0-.038a2.581,2.581,0,0,1,.168-.911c.008-.023.016-.045.024-.067s.01-.027.016-.039a2.34,2.34,0,0,1,1.1-1.232,2.581,2.581,0,0,1,.811-.3c.069-.013.137-.024.205-.031l.025,0c.072-.007.142-.01.212-.01l.034,0,.039,0,.1.005a2.584,2.584,0,0,1,1.89.974,2.589,2.589,0,0,1,4.068.013c.031.039.061.079.09.12.016.023.031.046.046.069.033.05.065.1.094.155,0,.009.011.018.015.027.035.065.068.133.1.2l.011.024c.029.07.055.142.078.215l.009.028c.022.072.041.146.057.221,0,.013,0,.024.007.036.014.073.026.148.034.224,0,.016,0,.031,0,.047,0,.032.006.064.008.1s0,.063,0,.095c0,.013,0,.026,0,.039Z" transform="translate(-181.07 -66.125)"/><path class="a" d="M201.972,76.387a1.145,1.145,0,1,0,1.145,1.145,1.146,1.146,0,0,0-1.145-1.145" transform="translate(-174.686 -70.265)"/><path class="a" d="M203.735,78.426a2.254,2.254,0,0,1,0-3.174L205.39,73.6,198.7,66.9a2.253,2.253,0,0,0-3.176,0l-6.691,6.692,1.654,1.654a2.254,2.254,0,0,1,0,3.174l-1.728,1.729,6.764,6.767a2.254,2.254,0,0,0,3.176,0l6.763-6.766Zm-7.069,3.73a.632.632,0,1,1-1.264,0v-4.5l-2.63-1.5a.632.632,0,0,1,.627-1.1l2.949,1.684a.632.632,0,0,1,.318.549Zm.435-6.306a2.409,2.409,0,1,1,2.41-2.41,2.412,2.412,0,0,1-2.41,2.41m4.346.3-2.631,1.5v4.5a.632.632,0,1,1-1.264,0V77.284a.633.633,0,0,1,.318-.549l2.949-1.684a.632.632,0,0,1,.627,1.1" transform="translate(-169.815 -66.173)"/><path class="a" d="M172.9,85.229l2.976-2.977a.381.381,0,1,0-.539-.539L172.9,84.151V82.2l1.647-1.647a.381.381,0,1,0-.539-.539L172.9,81.12V79.079a.381.381,0,0,0-.762,0v2.054l-1.122-1.122a.381.381,0,1,0-.539.539l1.661,1.661v1.953l-2.451-2.451a.381.381,0,0,0-.539.539l2.99,2.991v1.891c.126.011.252.022.381.022s.255-.011.381-.022Z" transform="translate(-161.857 -71.197)"/><path class="a" d="M174.288,75.272l1.728-1.729-6.765-6.766a2.252,2.252,0,0,0-3.177,0l-8.418,8.42a2.25,2.25,0,0,0,0,3.174l8.418,8.421a2.256,2.256,0,0,0,3.177,0l6.691-6.692-1.654-1.655a2.249,2.249,0,0,1,0-3.173m-2.154,2.457c0,.016,0,.032,0,.048a4.343,4.343,0,0,1-.162,1.177c-.008.029-.016.058-.024.086l-.014.052a2.98,2.98,0,0,1-.828,1.343,4.431,4.431,0,0,1-6.815.091,2.988,2.988,0,0,1-.567-.684c-.03-.051-.059-.1-.087-.155-.016-.03-.03-.059-.044-.089-.032-.065-.063-.132-.091-.2l-.015-.036c-.035-.084-.066-.172-.094-.261l-.011-.032c-.029-.09-.054-.183-.076-.278l-.009-.036c-.021-.094-.039-.188-.055-.286,0-.015,0-.031-.007-.047-.014-.095-.026-.19-.033-.288,0-.02,0-.041,0-.061,0-.041-.005-.083-.006-.125s0-.082,0-.122c0-.017,0-.033,0-.051V77.76l0-.027c0-.047-.014-.091-.014-.138a4.423,4.423,0,0,1,.214-1.3c.022-.079.045-.157.072-.233a4.261,4.261,0,0,1,.168-.4,4.192,4.192,0,0,1,.236-.435c.045-.073.089-.147.14-.218.038-.054.066-.114.107-.166.944-1.222,1.927-2.39,2.908-3.559a.85.85,0,0,1,.4-.263c.016-.005.032-.012.048-.016L167.52,71a.752.752,0,0,1,.142-.015h.01a.7.7,0,0,1,.137.016.854.854,0,0,1,.5.294c.973,1.158,1.949,2.317,2.885,3.527.055.072.1.153.149.228.024.035.046.07.069.106a4.433,4.433,0,0,1,.317.584c.032.07.063.139.091.21a4.33,4.33,0,0,1,.155.5c.033.125.067.248.09.376.015.094.019.193.029.29a4.334,4.334,0,0,1,.049.484c0,.046-.012.088-.013.134Z" transform="translate(-157 -66.122)"/><path class="a" d="M41.755,8.672s1.27.356,1.4.445,2.655,1.829,2.655,1.931-.025.686,0,.965.241,1,0,1.41a4.874,4.874,0,0,1-1.029,1.346c-.3.165-1.156.584-1.219.61a1.89,1.89,0,0,1-.927.343,1.929,1.929,0,0,1-2.045-1.448c-.394-1.207-1.105-1.829-.749-2.5a9.377,9.377,0,0,0,.559-1.486,2.9,2.9,0,0,1,.559-.991C41.171,9.1,41.755,8.672,41.755,8.672Z" transform="translate(-7.434 -1.622)"/><path class="a" d="M2857.933,3876.891a4.916,4.916,0,0,0,1.347.28,4.687,4.687,0,0,1,1.6.444,13.909,13.909,0,0,1,.623,1.3c.012.166.241.776.266.952s.369.954,0,1.3a13.338,13.338,0,0,0-.966,1.195c-.19.215-.406.533-.648.558a6.883,6.883,0,0,0-1.245.738h-.355a.987.987,0,0,1-.687-.076c-.432-.178-1.4-.089-1.7-.814s-.458-.559-.509-1.6a15.067,15.067,0,0,1-.089-2.5,2.532,2.532,0,0,1,.432-1.294,1.626,1.626,0,0,1,.571-.357,11.126,11.126,0,0,1,1.22-.115Z" transform="translate(-2839.455 -3869.663)"/></g><path class="a" d="M174.288,75.272l1.728-1.729-6.765-6.766a2.252,2.252,0,0,0-3.177,0l-8.418,8.42a2.25,2.25,0,0,0,0,3.174l8.418,8.421a2.256,2.256,0,0,0,3.177,0l6.691-6.692-1.654-1.655a2.249,2.249,0,0,1,0-3.173m-2.154,2.457c0,.016,0,.032,0,.048a4.343,4.343,0,0,1-.162,1.177c-.008.029-.016.058-.024.086l-.014.052a2.98,2.98,0,0,1-.828,1.343,4.431,4.431,0,0,1-6.815.091,2.988,2.988,0,0,1-.567-.684c-.03-.051-.059-.1-.087-.155-.016-.03-.03-.059-.044-.089-.032-.065-.063-.132-.091-.2l-.015-.036c-.035-.084-.066-.172-.094-.261l-.011-.032c-.029-.09-.054-.183-.076-.278l-.009-.036c-.021-.094-.039-.188-.055-.286,0-.015,0-.031-.007-.047-.014-.095-.026-.19-.033-.288,0-.02,0-.041,0-.061,0-.041-.005-.083-.006-.125s0-.082,0-.122c0-.017,0-.033,0-.051V77.76l0-.027c0-.047-.014-.091-.014-.138a4.423,4.423,0,0,1,.214-1.3c.022-.079.045-.157.072-.233a4.261,4.261,0,0,1,.168-.4,4.192,4.192,0,0,1,.236-.435c.045-.073.089-.147.14-.218.038-.054.066-.114.107-.166.944-1.222,1.927-2.39,2.908-3.559a.85.85,0,0,1,.4-.263c.016-.005.032-.012.048-.016L167.52,71a.752.752,0,0,1,.142-.015h.01a.7.7,0,0,1,.137.016.854.854,0,0,1,.5.294c.973,1.158,1.949,2.317,2.885,3.527.055.072.1.153.149.228.024.035.046.07.069.106a4.433,4.433,0,0,1,.317.584c.032.07.063.139.091.21a4.33,4.33,0,0,1,.155.5c.033.125.067.248.09.376.015.094.019.193.029.29a4.334,4.334,0,0,1,.049.484c0,.046-.012.088-.013.134Z" transform="translate(664 24.458)"/></g></svg>