<svg xmlns="http://www.w3.org/2000/svg" width="29.675" height="29.675" viewBox="0 0 29.675 29.675"><circle cx="14.838" cy="14.838" r="14.838" fill="#3b4157"/><path d="M8.644,0C6.3,0,6,.011,5.08.052a6.374,6.374,0,0,0-2.1.4,4.233,4.233,0,0,0-1.531,1,4.217,4.217,0,0,0-1,1.531,6.355,6.355,0,0,0-.4,2.1C.009,6,0,6.3,0,8.644s.011,2.641.052,3.563a6.378,6.378,0,0,0,.4,2.1,4.239,4.239,0,0,0,1,1.531,4.227,4.227,0,0,0,1.531,1,6.381,6.381,0,0,0,2.1.4c.922.043,1.215.052,3.563.052s2.641-.011,3.563-.052a6.4,6.4,0,0,0,2.1-.4,4.417,4.417,0,0,0,2.528-2.528,6.377,6.377,0,0,0,.4-2.1c.043-.922.052-1.215.052-3.563S17.277,6,17.235,5.08a6.392,6.392,0,0,0-.4-2.1,4.242,4.242,0,0,0-1-1.531,4.211,4.211,0,0,0-1.531-1,6.359,6.359,0,0,0-2.1-.4C11.285.009,10.992,0,8.644,0Zm0,1.556c2.307,0,2.582.012,3.493.051a4.762,4.762,0,0,1,1.6.3,2.844,2.844,0,0,1,1.641,1.64,4.772,4.772,0,0,1,.3,1.6c.041.912.05,1.186.05,3.493s-.011,2.582-.053,3.493a4.864,4.864,0,0,1-.3,1.6,2.745,2.745,0,0,1-.648,1,2.7,2.7,0,0,1-.994.645,4.807,4.807,0,0,1-1.61.3c-.918.041-1.188.05-3.5.05s-2.583-.011-3.5-.053a4.9,4.9,0,0,1-1.611-.3,2.677,2.677,0,0,1-.993-.648,2.625,2.625,0,0,1-.648-.994,4.905,4.905,0,0,1-.3-1.61c-.032-.908-.044-1.188-.044-3.489s.012-2.583.044-3.5a4.9,4.9,0,0,1,.3-1.609,2.562,2.562,0,0,1,.648-.995,2.557,2.557,0,0,1,.993-.647,4.784,4.784,0,0,1,1.6-.3c.918-.032,1.189-.043,3.5-.043l.032.022Zm0,2.649a4.439,4.439,0,1,0,4.439,4.439A4.438,4.438,0,0,0,8.644,4.205Zm0,7.32a2.881,2.881,0,1,1,2.881-2.881A2.88,2.88,0,0,1,8.644,11.525ZM14.3,4.03a1.037,1.037,0,1,1-1.037-1.037A1.038,1.038,0,0,1,14.3,4.03Z" transform="translate(6.04 6.041)" fill="#fff"/></svg>